#!OML:ASF G:\JayActor3\Patient Classification 1\Patient 1\Session 5\male.ASF
:FULLY-SPECIFIED
:DEGREES
349
root -22.3077 17.4342 -7.08206 -47.1121 81.5956 -49.1889
lowerback -0.925788 0.320625 8.27692
upperback 0.321684 0.333394 0.0591985
thorax 0.901024 0.217655 -4.57672
lowerneck -6.54161 -0.019203 0.641458
upperneck 6.45704 -0.27871 2.76834
head 3.23276 -0.00281937 0.77776
rclavicle 5.59082e-016 1.59028e-014
rhumerus -33.0464 -8.40466 -85.0452
rradius 24.3963
rwrist 4.7413
rhand -19.0447 -8.71745
rfingers 7.12502
rthumb 7.26205 -38.5728
lclavicle 5.59082e-016 1.59028e-014
lhumerus -36.765 18.747 74.8968
lradius 18.7984
lwrist 10.3942
lhand -17.9504 12.1069
lfingers 7.12502
lthumb 8.31816 41.9231
rfemur 15.3636 3.54922 30.2993
rtibia 18.4808
rfoot 10.4504 -6.30331
rtoes -6.00401
lfemur -20.1434 10.9715 -19.2502
ltibia 24.5562
lfoot 2.0585 -1.25949
ltoes -16.942
350
root -22.1648 17.4376 -7.08829 -45.2833 81.7736 -47.3336
lowerback -0.969267 0.348379 7.99235
upperback 0.262986 0.371503 -0.0529711
thorax 0.868597 0.231551 -4.53285
lowerneck -6.49635 -0.0344781 0.653687
upperneck 6.50498 -0.300783 2.77548
head 3.24085 -0.0126588 0.777066
rclavicle 7.41715e-015 1.03368e-014
rhumerus -33.2196 -8.54223 -84.9878
rradius 24.3625
rwrist 4.77251
rhand -19.0391 -8.68017
rfingers 7.12502
rthumb 7.26744 -38.5354
lclavicle 7.41715e-015 1.03368e-014
lhumerus -36.9665 18.5981 74.9046
lradius 19.0855
lwrist 10.6272
lhand -17.9349 12.1579
lfingers 7.12502
lthumb 8.33319 41.9735
rfemur 15.4181 3.76894 29.9204
rtibia 18.9547
rfoot 11.3196 -7.01534
rtoes -4.62465
lfemur -19.715 11.346 -19.5984
ltibia 24.7518
lfoot 1.59027 -1.72586
ltoes -17.3131
351
root -22.0229 17.4411 -7.09388 -43.3525 81.9603 -45.3629
lowerback -0.994457 0.373035 7.6784
upperback 0.203617 0.407737 -0.163259
thorax 0.824553 0.244154 -4.47042
lowerneck -6.45245 -0.052108 0.663061
upperneck 6.5741 -0.326238 2.7836
head 3.25657 -0.0238748 0.777192
rclavicle 4.06266e-015 1.47101e-014
rhumerus -33.3869 -8.6904 -84.9189
rradius 24.3232
rwrist 4.79756
rhand -19.0448 -8.63576
rfingers 7.12502
rthumb 7.26195 -38.4911
lclavicle 4.06266e-015 1.47101e-014
lhumerus -37.131 18.4456 74.9299
lradius 19.3394
lwrist 10.8759
lhand -17.9182 12.1706
lfingers 7.12502
lthumb 8.34927 41.9856
rfemur 15.3897 3.97229 29.5212
rtibia 19.5754
rfoot 12.2018 -7.74931
rtoes -3.11311
lfemur -19.2665 11.7154 -19.936
ltibia 24.9274
lfoot 1.1186 -2.26489
ltoes -17.8606
352
root -21.8823 17.4447 -7.09867 -41.3662 82.1403 -43.3235
lowerback -1.00086 0.397438 7.3505
upperback 0.147937 0.445356 -0.267703
thorax 0.773639 0.257562 -4.39395
lowerneck -6.42355 -0.0730379 0.673632
upperneck 6.66765 -0.356734 2.78799
head 3.28367 -0.0372419 0.775874
rclavicle 7.83957e-015 -2.78299e-015
rhumerus -33.5417 -8.84873 -84.8417
rradius 24.2808
rwrist 4.81477
rhand -19.0565 -8.60261
rfingers 7.12502
rthumb 7.25059 -38.4584
lclavicle 7.83957e-015 -2.78299e-015
lhumerus -37.2449 18.2906 74.9732
lradius 19.5504
lwrist 11.1276
lhand -17.9034 12.1738
lfingers 7.12502
lthumb 8.36357 41.9882
rfemur 15.2684 4.16442 29.1219
rtibia 20.3588
rfoot 13.0977 -8.52708
rtoes -1.42063
lfemur -18.7938 12.065 -20.2362
ltibia 25.0898
lfoot 0.657087 -2.84485
ltoes -18.3444
353
root -21.743 17.4497 -7.10267 -39.2843 82.2962 -41.1779
lowerback -0.998556 0.425975 7.01531
upperback 0.101648 0.488882 -0.364213
thorax 0.727976 0.274677 -4.3049
lowerneck -6.41114 -0.095053 0.689922
upperneck 6.77841 -0.389248 2.78363
head 3.3199 -0.0514449 0.770753
rclavicle 2.50717e-014 1.35174e-014
rhumerus -33.6712 -9.00838 -84.7619
rradius 24.2293
rwrist 4.81815
rhand -19.0814 -8.58765
rfingers 7.12502
rthumb 7.22662 -38.4443
lclavicle 2.50717e-014 1.35174e-014
lhumerus -37.3028 18.142 75.0334
lradius 19.7249
lwrist 11.3697
lhand -17.8766 12.1639
lfingers 7.12502
lthumb 8.38944 41.9773
rfemur 15.0438 4.35347 28.7272
rtibia 21.3185
rfoot 13.9991 -9.35686
rtoes 0.0310466
lfemur -18.2851 12.342 -20.4743
ltibia 25.243
lfoot 0.231404 -3.38504
ltoes -18.2828
354
root -21.6055 17.4554 -7.10554 -37.0499 82.4134 -38.8776
lowerback -0.992328 0.464084 6.67207
upperback 0.0620125 0.545241 -0.452367
thorax 0.688132 0.29886 -4.20226
lowerneck -6.40201 -0.116218 0.707371
upperneck 6.89448 -0.420741 2.77753
head 3.35862 -0.0650511 0.764936
rclavicle 7.83957e-015 1.74931e-014
rhumerus -33.774 -9.16659 -84.6825
rradius 24.1651
rwrist 4.81246
rhand -19.113 -8.58047
rfingers 7.12502
rthumb 7.19608 -38.4381
lclavicle 7.83957e-015 1.74931e-014
lhumerus -37.3151 17.994 75.1108
lradius 19.8836
lwrist 11.6017
lhand -17.8295 12.141
lfingers 7.12502
lthumb 8.43489 41.9526
rfemur 14.6996 4.55389 28.3419
rtibia 22.468
rfoot 14.892 -10.2299
rtoes 1.28102
lfemur -17.7532 12.5502 -20.6599
ltibia 25.3832
lfoot -0.146355 -3.87359
ltoes -17.8632
355
root -21.4705 17.4614 -7.10736 -34.6762 82.4765 -36.4385
lowerback -0.982488 0.513808 6.33089
upperback 0.0304017 0.616961 -0.531506
thorax 0.655868 0.331459 -4.09107
lowerneck -6.39861 -0.133548 0.725345
upperneck 7.01124 -0.44726 2.77161
head 3.39869 -0.0760952 0.759333
rclavicle 4.98204e-015 -1.11319e-014
rhumerus -33.838 -9.32291 -84.607
rradius 24.0793
rwrist 4.80515
rhand -19.1485 -8.5784
rfingers 7.12502
rthumb 7.16185 -38.4372
lclavicle 4.98204e-015 -1.11319e-014
lhumerus -37.2936 17.8411 75.2059
lradius 20.0524
lwrist 11.8356
lhand -17.7727 12.1327
lfingers 7.12502
lthumb 8.48969 41.942
rfemur 14.2242 4.7615 27.9672
rtibia 23.82
rfoot 15.7813 -11.0957
rtoes 2.22489
lfemur -17.2042 12.7223 -20.8021
ltibia 25.497
lfoot -0.469689 -4.3196
ltoes -17.3117
356
root -21.338 17.4674 -7.10803 -32.1396 82.479 -33.8418
lowerback -0.977077 0.576615 5.98731
upperback 0.007873 0.705485 -0.603914
thorax 0.636672 0.373303 -3.9711
lowerneck -6.39084 -0.143979 0.742798
upperneck 7.11513 -0.464449 2.77024
head 3.43342 -0.0825258 0.755664
rclavicle -9.96408e-015 -4.37326e-015
rhumerus -33.8555 -9.48816 -84.5349
rradius 23.9643
rwrist 4.82568
rhand -19.1879 -8.56173
rfingers 7.12502
rthumb 7.12374 -38.4218
lclavicle -9.96408e-015 -4.37326e-015
lhumerus -37.2338 17.6893 75.3129
lradius 20.2246
lwrist 12.0699
lhand -17.7145 12.1185
lfingers 7.12502
lthumb 8.5459 41.9256
rfemur 13.6062 4.97807 27.596
rtibia 25.3838
rfoot 16.6694 -11.9114
rtoes 2.95093
lfemur -16.6449 12.9104 -20.9263
ltibia 25.5616
lfoot -0.7374 -4.7326
ltoes -16.8758
357
root -21.2088 17.4725 -7.10777 -29.4353 82.4298 -31.0837
lowerback -0.972025 0.648758 5.63315
upperback -0.00941642 0.806389 -0.675505
thorax 0.623488 0.42177 -3.84402
lowerneck -6.37227 -0.146837 0.759442
upperneck 7.20269 -0.471508 2.77788
head 3.46035 -0.0838496 0.755456
rclavicle -2.23633e-015 5.56597e-015
rhumerus -33.8385 -9.64523 -84.476
rradius 23.8389
rwrist 4.86702
rhand -19.2225 -8.54228
rfingers 7.12502
rthumb 7.09036 -38.4035
lclavicle -2.23633e-015 5.56597e-015
lhumerus -37.1508 17.5228 75.4318
lradius 20.4153
lwrist 12.3226
lhand -17.6608 12.0996
lfingers 7.12502
lthumb 8.59766 41.9045
rfemur 12.8468 5.18764 27.2081
rtibia 27.1471
rfoot 17.5749 -12.6158
rtoes 3.59896
lfemur -16.0866 13.1738 -21.0649
ltibia 25.5636
lfoot -0.95748 -5.15312
ltoes -16.7949
